# xmcd
#
# Track frame offsets:
#	150
#	20797
#	42767
#	63865
#	86002
#	100889
#	129949
#	174741
#	199106
#
# Disc length: 2989 seconds
#
# Revision: 0
# Processed by: cddbd v1.5.2PL0 Copyright (c) Steve Scherf et al.
# Submitted via: EZCDAudioConverter 1.2.2.1
#
DISCID=730bab09
DTITLE=B. B. King - Completely Well
DYEAR=1969
DGENRE=Blues
TTITLE0=So Excited
TTITLE1=No Good
TTITLE2=You're Losin' Me
TTITLE3=What Happened
TTITLE4=Confessin' The Blues
TTITLE5=Key To My Kingdom
TTITLE6=Cryin' Won't Help You Now
TTITLE7=You're Mean
TTITLE8=The Thrill Is Gone
EXTD=
EXTT0=
EXTT1=
EXTT2=
EXTT3=
EXTT4=
EXTT5=
EXTT6=
EXTT7=
EXTT8=
PLAYORDER=
